# Blender v2.79 (sub 7) OBJ File: 'wall.blend'
# www.blender.org
o inner
v 0.015000 0.492500 -0.507500
v 0.015000 0.207500 -0.507500
v 0.015000 0.092500 -0.507500
v 0.015000 -0.307500 -0.507500
v 0.617500 -0.407500 -0.507500
v 0.492500 -0.192500 -0.507500
v 0.492500 -0.107500 -0.507500
v 0.617500 -0.007500 -0.507500
v 0.617500 0.192500 -0.507500
v 0.617500 0.307500 -0.507500
v 0.492500 0.292500 -0.507500
v 0.492500 0.407500 -0.507500
v 0.617500 0.392500 -0.507500
v 0.132500 -0.492500 -0.507500
v 0.367500 -0.492500 -0.507500
v 0.242500 0.492500 -0.507500
v 0.367500 -0.407500 -0.507500
v 0.242500 -0.392500 -0.507500
v 0.015000 0.407500 -0.507500
v 0.132500 -0.407500 -0.507500
v 0.367500 -0.292500 -0.507500
v 0.257500 -0.307500 -0.507500
v 0.015000 -0.192500 -0.507500
v 0.382500 -0.207500 -0.507500
v 0.257500 -0.192500 -0.507500
v 0.015000 -0.107500 -0.507500
v 0.492500 0.492500 -0.507500
v 0.132500 -0.092500 -0.507500
v 0.382500 -0.007500 -0.507500
v 0.242500 0.007500 -0.507500
v 0.617500 -0.292500 -0.507500
v 0.132500 -0.007500 -0.507500
v 0.382500 0.107500 -0.507500
v 0.367500 0.107500 -0.507500
v 0.257500 0.092500 -0.507500
v 0.242500 0.092500 -0.507500
v 0.132500 0.107500 -0.507500
v 0.015000 0.007500 -0.507500
v 0.257500 0.207500 -0.507500
v 0.132500 0.192500 -0.507500
v 0.257500 0.292500 -0.507500
v 0.015000 0.292500 -0.507500
v 0.242500 0.292500 -0.507500
v 0.132500 0.307500 -0.507500
v 0.257500 0.407500 -0.507500
v 0.242500 0.407500 -0.507500
v 0.132500 0.392500 -0.507500
v 0.617500 -0.092500 -0.507500
v 0.492500 0.007500 -0.507500
v 0.492500 0.207500 -0.507500
v 0.382500 -0.492500 -0.507500
v 0.257500 0.492500 -0.507500
v 0.382500 -0.407500 -0.507500
v 0.257500 -0.392500 -0.507500
v 0.382500 -0.292500 -0.507500
v 0.242500 -0.307500 -0.507500
v 0.132500 -0.292500 -0.507500
v 0.367500 -0.207500 -0.507500
v 0.242500 -0.192500 -0.507500
v 0.132500 -0.207500 -0.507500
v 0.382500 -0.092500 -0.507500
v 0.367500 -0.092500 -0.507500
v 0.257500 -0.107500 -0.507500
v 0.242500 -0.107500 -0.507500
v 0.367500 -0.007500 -0.507500
v 0.257500 0.007500 -0.507500
v 0.382500 0.192500 -0.507500
v 0.367500 0.192500 -0.507500
v 0.242500 0.207500 -0.507500
v 0.382500 0.307500 -0.507500
v 0.367500 0.307500 -0.507500
v 0.382500 0.392500 -0.507500
v 0.367500 0.392500 -0.507500
v 0.617500 -0.492500 -0.507500
v 0.015000 -0.392500 -0.507500
v 0.492500 -0.392500 -0.507500
v 0.492500 -0.307500 -0.507500
v 0.617500 -0.207500 -0.507500
v 0.617500 0.107500 -0.507500
v 0.492500 0.092500 -0.507500
v 0.492500 0.492500 -0.500000
v 0.015000 0.492500 -0.500000
v 0.015000 0.092500 -0.500000
v 0.617500 -0.492500 -0.500000
v 0.257500 -0.392500 -0.500000
v 0.015000 0.407500 -0.500000
v 0.242500 -0.392500 -0.500000
v 0.132500 -0.407500 -0.500000
v 0.367500 -0.407500 -0.500000
v 0.617500 -0.292500 -0.500000
v 0.382500 -0.292500 -0.500000
v 0.015000 -0.192500 -0.500000
v 0.257500 -0.307500 -0.500000
v 0.367500 -0.292500 -0.500000
v 0.132500 -0.292500 -0.500000
v 0.015000 -0.307500 -0.500000
v 0.242500 -0.307500 -0.500000
v 0.492500 -0.307500 -0.500000
v 0.382500 -0.207500 -0.500000
v 0.257500 -0.192500 -0.500000
v 0.015000 -0.107500 -0.500000
v 0.242500 -0.192500 -0.500000
v 0.132500 -0.207500 -0.500000
v 0.015000 -0.392500 -0.500000
v 0.492500 -0.392500 -0.500000
v 0.257500 -0.107500 -0.500000
v 0.492500 -0.107500 -0.500000
v 0.367500 -0.092500 -0.500000
v 0.617500 -0.407500 -0.500000
v 0.382500 -0.007500 -0.500000
v 0.617500 -0.007500 -0.500000
v 0.132500 -0.007500 -0.500000
v 0.367500 -0.007500 -0.500000
v 0.382500 0.107500 -0.500000
v 0.367500 0.107500 -0.500000
v 0.132500 0.107500 -0.500000
v 0.242500 0.092500 -0.500000
v 0.382500 0.192500 -0.500000
v 0.242500 0.207500 -0.500000
v 0.132500 0.192500 -0.500000
v 0.382500 0.307500 -0.500000
v 0.015000 0.292500 -0.500000
v 0.367500 0.307500 -0.500000
v 0.382500 0.392500 -0.500000
v 0.617500 0.392500 -0.500000
v 0.242500 0.407500 -0.500000
v 0.367500 0.392500 -0.500000
v 0.132500 -0.492500 -0.500000
v 0.382500 -0.492500 -0.500000
v 0.617500 -0.092500 -0.500000
v 0.492500 0.007500 -0.500000
v 0.617500 0.107500 -0.500000
v 0.492500 0.092500 -0.500000
v 0.492500 0.207500 -0.500000
v 0.617500 0.192500 -0.500000
v 0.617500 0.307500 -0.500000
v 0.492500 0.292500 -0.500000
v 0.492500 0.407500 -0.500000
v 0.367500 -0.492500 -0.500000
v 0.242500 0.492500 -0.500000
v 0.257500 0.492500 -0.500000
v 0.382500 -0.407500 -0.500000
v 0.367500 -0.207500 -0.500000
v 0.382500 -0.092500 -0.500000
v 0.242500 -0.107500 -0.500000
v 0.132500 -0.092500 -0.500000
v 0.257500 0.007500 -0.500000
v 0.242500 0.007500 -0.500000
v 0.257500 0.092500 -0.500000
v 0.367500 0.192500 -0.500000
v 0.257500 0.207500 -0.500000
v 0.257500 0.292500 -0.500000
v 0.242500 0.292500 -0.500000
v 0.132500 0.307500 -0.500000
v 0.257500 0.407500 -0.500000
v 0.132500 0.392500 -0.500000
v 0.492500 -0.192500 -0.500000
v 0.015000 0.207500 -0.500000
v 0.015000 0.007500 -0.500000
v 0.617500 -0.207500 -0.500000
v 0.117500 -0.492500 -0.507500
v -0.007500 -0.492500 -0.507500
v 0.117500 -0.407500 -0.507500
v -0.007500 -0.407500 -0.507500
v 0.117500 -0.492500 -0.500000
v -0.007500 -0.492500 -0.500000
v -0.007500 -0.407500 -0.500000
v 0.117500 -0.407500 -0.500000
v 0.117500 -0.292500 -0.507500
v -0.007500 -0.292500 -0.507500
v 0.117500 -0.207500 -0.507500
v -0.007500 -0.207500 -0.507500
v 0.117500 -0.292500 -0.500000
v -0.007500 -0.292500 -0.500000
v -0.007500 -0.207500 -0.500000
v 0.117500 -0.207500 -0.500000
v 0.117500 -0.092500 -0.507500
v -0.007500 -0.092500 -0.507500
v 0.117500 -0.007500 -0.507500
v -0.007500 -0.007500 -0.507500
v 0.117500 -0.092500 -0.500000
v -0.007500 -0.092500 -0.500000
v -0.007500 -0.007500 -0.500000
v 0.117500 -0.007500 -0.500000
v 0.117500 0.107500 -0.507500
v -0.007500 0.107500 -0.507500
v 0.117500 0.192500 -0.507500
v -0.007500 0.192500 -0.507500
v 0.117500 0.107500 -0.500000
v -0.007500 0.107500 -0.500000
v -0.007500 0.192500 -0.500000
v 0.117500 0.192500 -0.500000
v 0.117500 0.307500 -0.507500
v -0.007500 0.307500 -0.507500
v 0.117500 0.392500 -0.507500
v -0.007500 0.392500 -0.507500
v 0.117500 0.307500 -0.500000
v -0.007500 0.307500 -0.500000
v -0.007500 0.392500 -0.500000
v 0.117500 0.392500 -0.500000
vn 0.0000 1.0000 0.0000
vn 0.0000 -1.0000 0.0000
vn 0.0000 0.0000 1.0000
vn -1.0000 0.0000 0.0000
vn 1.0000 0.0000 0.0000
s off
f 72//1 125//1 13//1
f 42//1 153//1 43//1
f 71//2 154//2 44//2
f 41//1 137//1 11//1
f 10//2 121//2 70//2
f 40//1 150//1 68//1
f 69//2 158//2 2//2
f 50//2 151//2 39//2
f 105//3 93//3 85//3
f 143//3 95//3 94//3
f 157//3 106//3 100//3
f 113//3 146//3 108//3
f 131//3 149//3 147//3
f 150//3 116//3 115//3
f 134//3 152//3 151//3
f 127//3 154//3 123//3
f 138//3 141//3 155//3
f 158//3 153//3 122//3
f 136//3 124//3 121//3
f 148//3 83//3 159//3
f 132//3 118//3 114//3
f 102//3 101//3 92//3
f 130//3 110//3 144//3
f 87//3 96//3 104//3
f 90//3 99//3 91//3
f 84//3 142//3 129//3
f 139//3 88//3 128//3
f 126//3 82//3 86//3
f 12//2 155//2 45//2
f 46//2 86//2 19//2
f 47//1 127//1 73//1
f 44//4 156//4 47//4
f 70//4 124//4 72//4
f 73//5 123//5 71//5
f 39//4 152//4 41//4
f 69//5 153//5 119//5
f 37//4 120//4 40//4
f 33//4 118//4 67//4
f 68//5 115//5 34//5
f 66//4 149//4 35//4
f 30//5 117//5 148//5
f 28//4 112//4 32//4
f 61//4 110//4 29//4
f 62//5 113//5 108//5
f 25//4 106//4 63//4
f 59//5 145//5 102//5
f 57//4 103//4 60//4
f 55//4 99//4 24//4
f 58//5 94//5 21//5
f 54//4 93//4 22//4
f 18//5 97//5 87//5
f 14//4 88//4 20//4
f 51//4 142//4 53//4
f 15//5 89//5 139//5
f 45//4 141//4 52//4
f 16//5 126//5 46//5
f 1//1 140//1 16//1
f 19//4 82//4 1//4
f 2//4 122//4 42//4
f 38//4 83//4 3//4
f 23//4 101//4 26//4
f 75//4 96//4 4//4
f 74//2 129//2 51//2
f 76//5 98//5 105//5
f 6//5 107//5 157//5
f 49//5 133//5 131//5
f 50//5 137//5 134//5
f 53//1 109//1 5//1
f 27//5 138//5 12//5
f 76//2 85//2 54//2
f 52//1 81//1 27//1
f 15//2 128//2 14//2
f 18//2 104//2 75//2
f 20//1 89//1 17//1
f 31//2 91//2 55//2
f 22//1 98//1 77//1
f 21//2 95//2 57//2
f 4//1 97//1 56//1
f 24//1 160//1 78//1
f 6//2 100//2 25//2
f 59//2 92//2 23//2
f 60//1 143//1 58//1
f 48//2 144//2 61//2
f 63//1 107//1 7//1
f 62//2 146//2 28//2
f 26//1 145//1 64//1
f 29//1 111//1 8//1
f 49//2 147//2 66//2
f 30//2 159//2 38//2
f 32//1 113//1 65//1
f 79//2 114//2 33//2
f 35//1 133//1 80//1
f 34//2 116//2 37//2
f 3//1 117//1 36//1
f 67//1 135//1 9//1
f 136//5 13//5 125//5
f 79//5 135//5 132//5
f 111//5 48//5 8//5
f 160//5 31//5 78//5
f 109//5 74//5 5//5
f 168//3 166//3 165//3
f 163//5 165//5 161//5
f 161//2 166//2 162//2
f 164//1 168//1 163//1
f 176//3 174//3 173//3
f 171//5 173//5 169//5
f 169//2 174//2 170//2
f 172//1 176//1 171//1
f 184//3 182//3 181//3
f 179//5 181//5 177//5
f 177//2 182//2 178//2
f 180//1 184//1 179//1
f 192//3 190//3 189//3
f 187//5 189//5 185//5
f 185//2 190//2 186//2
f 188//1 192//1 187//1
f 200//3 198//3 197//3
f 195//5 197//5 193//5
f 193//2 198//2 194//2
f 196//1 200//1 195//1
f 72//1 124//1 125//1
f 42//1 122//1 153//1
f 71//2 123//2 154//2
f 41//1 152//1 137//1
f 10//2 136//2 121//2
f 40//1 120//1 150//1
f 69//2 119//2 158//2
f 50//2 134//2 151//2
f 105//3 98//3 93//3
f 143//3 103//3 95//3
f 157//3 107//3 106//3
f 113//3 112//3 146//3
f 131//3 133//3 149//3
f 150//3 120//3 116//3
f 134//3 137//3 152//3
f 127//3 156//3 154//3
f 138//3 81//3 141//3
f 158//3 119//3 153//3
f 136//3 125//3 124//3
f 148//3 117//3 83//3
f 132//3 135//3 118//3
f 102//3 145//3 101//3
f 130//3 111//3 110//3
f 87//3 97//3 96//3
f 90//3 160//3 99//3
f 84//3 109//3 142//3
f 139//3 89//3 88//3
f 126//3 140//3 82//3
f 12//2 138//2 155//2
f 46//2 126//2 86//2
f 47//1 156//1 127//1
f 44//4 154//4 156//4
f 70//4 121//4 124//4
f 73//5 127//5 123//5
f 39//4 151//4 152//4
f 69//5 43//5 153//5
f 37//4 116//4 120//4
f 33//4 114//4 118//4
f 68//5 150//5 115//5
f 66//4 147//4 149//4
f 30//5 36//5 117//5
f 28//4 146//4 112//4
f 61//4 144//4 110//4
f 62//5 65//5 113//5
f 25//4 100//4 106//4
f 59//5 64//5 145//5
f 57//4 95//4 103//4
f 55//4 91//4 99//4
f 58//5 143//5 94//5
f 54//4 85//4 93//4
f 18//5 56//5 97//5
f 14//4 128//4 88//4
f 51//4 129//4 142//4
f 15//5 17//5 89//5
f 45//4 155//4 141//4
f 16//5 140//5 126//5
f 1//1 82//1 140//1
f 19//4 86//4 82//4
f 2//4 158//4 122//4
f 38//4 159//4 83//4
f 23//4 92//4 101//4
f 75//4 104//4 96//4
f 74//2 84//2 129//2
f 76//5 77//5 98//5
f 6//5 7//5 107//5
f 49//5 80//5 133//5
f 50//5 11//5 137//5
f 53//1 142//1 109//1
f 27//5 81//5 138//5
f 76//2 105//2 85//2
f 52//1 141//1 81//1
f 15//2 139//2 128//2
f 18//2 87//2 104//2
f 20//1 88//1 89//1
f 31//2 90//2 91//2
f 22//1 93//1 98//1
f 21//2 94//2 95//2
f 4//1 96//1 97//1
f 24//1 99//1 160//1
f 6//2 157//2 100//2
f 59//2 102//2 92//2
f 60//1 103//1 143//1
f 48//2 130//2 144//2
f 63//1 106//1 107//1
f 62//2 108//2 146//2
f 26//1 101//1 145//1
f 29//1 110//1 111//1
f 49//2 131//2 147//2
f 30//2 148//2 159//2
f 32//1 112//1 113//1
f 79//2 132//2 114//2
f 35//1 149//1 133//1
f 34//2 115//2 116//2
f 3//1 83//1 117//1
f 67//1 118//1 135//1
f 136//5 10//5 13//5
f 79//5 9//5 135//5
f 111//5 130//5 48//5
f 160//5 90//5 31//5
f 109//5 84//5 74//5
f 168//3 167//3 166//3
f 163//5 168//5 165//5
f 161//2 165//2 166//2
f 164//1 167//1 168//1
f 176//3 175//3 174//3
f 171//5 176//5 173//5
f 169//2 173//2 174//2
f 172//1 175//1 176//1
f 184//3 183//3 182//3
f 179//5 184//5 181//5
f 177//2 181//2 182//2
f 180//1 183//1 184//1
f 192//3 191//3 190//3
f 187//5 192//5 189//5
f 185//2 189//2 190//2
f 188//1 191//1 192//1
f 200//3 199//3 198//3
f 195//5 200//5 197//5
f 193//2 197//2 198//2
f 196//1 199//1 200//1
o flat
v 0.007500 0.492500 -0.507500
v 0.007500 0.207500 -0.507500
v 0.007500 0.092500 -0.507500
v 0.007500 -0.307500 -0.507500
v 0.617500 -0.407500 -0.507500
v 0.492500 -0.192500 -0.507500
v 0.492500 -0.107500 -0.507500
v 0.617500 -0.007500 -0.507500
v 0.617500 0.192500 -0.507500
v 0.617500 0.307500 -0.507500
v 0.492500 0.292500 -0.507500
v 0.492500 0.407500 -0.507500
v 0.617500 0.392500 -0.507500
v 0.132500 -0.492500 -0.507500
v 0.367500 -0.492500 -0.507500
v 0.242500 0.492500 -0.507500
v 0.367500 -0.407500 -0.507500
v 0.242500 -0.392500 -0.507500
v 0.007500 0.407500 -0.507500
v 0.132500 -0.407500 -0.507500
v 0.367500 -0.292500 -0.507500
v 0.257500 -0.307500 -0.507500
v 0.007500 -0.192500 -0.507500
v 0.382500 -0.207500 -0.507500
v 0.257500 -0.192500 -0.507500
v 0.007500 -0.107500 -0.507500
v 0.492500 0.492500 -0.507500
v 0.132500 -0.092500 -0.507500
v 0.382500 -0.007500 -0.507500
v 0.242500 0.007500 -0.507500
v 0.617500 -0.292500 -0.507500
v 0.132500 -0.007500 -0.507500
v 0.382500 0.107500 -0.507500
v 0.367500 0.107500 -0.507500
v 0.257500 0.092500 -0.507500
v 0.242500 0.092500 -0.507500
v 0.132500 0.107500 -0.507500
v 0.007500 0.007500 -0.507500
v 0.257500 0.207500 -0.507500
v 0.132500 0.192500 -0.507500
v 0.257500 0.292500 -0.507500
v 0.007500 0.292500 -0.507500
v 0.242500 0.292500 -0.507500
v 0.132500 0.307500 -0.507500
v 0.257500 0.407500 -0.507500
v 0.242500 0.407500 -0.507500
v 0.132500 0.392500 -0.507500
v 0.617500 -0.092500 -0.507500
v 0.492500 0.007500 -0.507500
v 0.492500 0.207500 -0.507500
v 0.382500 -0.492500 -0.507500
v 0.257500 0.492500 -0.507500
v 0.382500 -0.407500 -0.507500
v 0.257500 -0.392500 -0.507500
v 0.382500 -0.292500 -0.507500
v 0.242500 -0.307500 -0.507500
v 0.132500 -0.292500 -0.507500
v 0.367500 -0.207500 -0.507500
v 0.242500 -0.192500 -0.507500
v 0.132500 -0.207500 -0.507500
v 0.382500 -0.092500 -0.507500
v 0.367500 -0.092500 -0.507500
v 0.257500 -0.107500 -0.507500
v 0.242500 -0.107500 -0.507500
v 0.367500 -0.007500 -0.507500
v 0.257500 0.007500 -0.507500
v 0.382500 0.192500 -0.507500
v 0.367500 0.192500 -0.507500
v 0.242500 0.207500 -0.507500
v 0.382500 0.307500 -0.507500
v 0.367500 0.307500 -0.507500
v 0.382500 0.392500 -0.507500
v 0.367500 0.392500 -0.507500
v 0.617500 -0.492500 -0.507500
v 0.007500 -0.392500 -0.507500
v 0.492500 -0.392500 -0.507500
v 0.492500 -0.307500 -0.507500
v 0.617500 -0.207500 -0.507500
v 0.617500 0.107500 -0.507500
v 0.492500 0.092500 -0.507500
v 0.492500 0.492500 -0.500000
v 0.007500 0.492500 -0.500000
v 0.007500 0.092500 -0.500000
v 0.617500 -0.492500 -0.500000
v 0.257500 -0.392500 -0.500000
v 0.007500 0.407500 -0.500000
v 0.242500 -0.392500 -0.500000
v 0.132500 -0.407500 -0.500000
v 0.367500 -0.407500 -0.500000
v 0.617500 -0.292500 -0.500000
v 0.382500 -0.292500 -0.500000
v 0.007500 -0.192500 -0.500000
v 0.257500 -0.307500 -0.500000
v 0.367500 -0.292500 -0.500000
v 0.132500 -0.292500 -0.500000
v 0.007500 -0.307500 -0.500000
v 0.242500 -0.307500 -0.500000
v 0.492500 -0.307500 -0.500000
v 0.382500 -0.207500 -0.500000
v 0.257500 -0.192500 -0.500000
v 0.007500 -0.107500 -0.500000
v 0.242500 -0.192500 -0.500000
v 0.132500 -0.207500 -0.500000
v 0.007500 -0.392500 -0.500000
v 0.492500 -0.392500 -0.500000
v 0.257500 -0.107500 -0.500000
v 0.492500 -0.107500 -0.500000
v 0.367500 -0.092500 -0.500000
v 0.617500 -0.407500 -0.500000
v 0.382500 -0.007500 -0.500000
v 0.617500 -0.007500 -0.500000
v 0.132500 -0.007500 -0.500000
v 0.367500 -0.007500 -0.500000
v 0.382500 0.107500 -0.500000
v 0.367500 0.107500 -0.500000
v 0.132500 0.107500 -0.500000
v 0.242500 0.092500 -0.500000
v 0.382500 0.192500 -0.500000
v 0.242500 0.207500 -0.500000
v 0.132500 0.192500 -0.500000
v 0.382500 0.307500 -0.500000
v 0.007500 0.292500 -0.500000
v 0.367500 0.307500 -0.500000
v 0.382500 0.392500 -0.500000
v 0.617500 0.392500 -0.500000
v 0.242500 0.407500 -0.500000
v 0.367500 0.392500 -0.500000
v 0.132500 -0.492500 -0.500000
v 0.382500 -0.492500 -0.500000
v 0.617500 -0.092500 -0.500000
v 0.492500 0.007500 -0.500000
v 0.617500 0.107500 -0.500000
v 0.492500 0.092500 -0.500000
v 0.492500 0.207500 -0.500000
v 0.617500 0.192500 -0.500000
v 0.617500 0.307500 -0.500000
v 0.492500 0.292500 -0.500000
v 0.492500 0.407500 -0.500000
v 0.367500 -0.492500 -0.500000
v 0.242500 0.492500 -0.500000
v 0.257500 0.492500 -0.500000
v 0.382500 -0.407500 -0.500000
v 0.367500 -0.207500 -0.500000
v 0.382500 -0.092500 -0.500000
v 0.242500 -0.107500 -0.500000
v 0.132500 -0.092500 -0.500000
v 0.257500 0.007500 -0.500000
v 0.242500 0.007500 -0.500000
v 0.257500 0.092500 -0.500000
v 0.367500 0.192500 -0.500000
v 0.257500 0.207500 -0.500000
v 0.257500 0.292500 -0.500000
v 0.242500 0.292500 -0.500000
v 0.132500 0.307500 -0.500000
v 0.257500 0.407500 -0.500000
v 0.132500 0.392500 -0.500000
v 0.492500 -0.192500 -0.500000
v 0.007500 0.207500 -0.500000
v 0.007500 0.007500 -0.500000
v 0.617500 -0.207500 -0.500000
vn 0.0000 1.0000 0.0000
vn 0.0000 -1.0000 0.0000
vn 0.0000 0.0000 1.0000
vn -1.0000 0.0000 0.0000
vn 1.0000 0.0000 0.0000
s off
f 272//6 325//6 213//6
f 242//6 353//6 243//6
f 271//7 354//7 244//7
f 241//6 337//6 211//6
f 210//7 321//7 270//7
f 240//6 350//6 268//6
f 269//7 358//7 202//7
f 250//7 351//7 239//7
f 305//8 293//8 285//8
f 343//8 295//8 294//8
f 357//8 306//8 300//8
f 313//8 346//8 308//8
f 331//8 349//8 347//8
f 350//8 316//8 315//8
f 334//8 352//8 351//8
f 327//8 354//8 323//8
f 338//8 341//8 355//8
f 319//8 322//8 358//8
f 336//8 324//8 321//8
f 348//8 283//8 359//8
f 332//8 318//8 314//8
f 302//8 301//8 292//8
f 330//8 310//8 344//8
f 287//8 296//8 304//8
f 290//8 299//8 291//8
f 284//8 342//8 329//8
f 339//8 288//8 328//8
f 326//8 282//8 286//8
f 212//7 355//7 245//7
f 246//7 286//7 219//7
f 247//6 327//6 273//6
f 244//9 356//9 247//9
f 270//9 324//9 272//9
f 273//10 323//10 271//10
f 239//9 352//9 241//9
f 269//10 353//10 319//10
f 237//9 320//9 240//9
f 233//9 318//9 267//9
f 268//10 315//10 234//10
f 266//9 349//9 235//9
f 230//10 317//10 348//10
f 228//9 312//9 232//9
f 261//9 310//9 229//9
f 262//10 313//10 308//10
f 225//9 306//9 263//9
f 259//10 345//10 302//10
f 257//9 303//9 260//9
f 255//9 299//9 224//9
f 258//10 294//10 221//10
f 254//9 293//9 222//9
f 218//10 297//10 287//10
f 214//9 288//9 220//9
f 251//9 342//9 253//9
f 215//10 289//10 339//10
f 245//9 341//9 252//9
f 216//10 326//10 246//10
f 201//6 340//6 216//6
f 219//9 282//9 201//9
f 202//9 322//9 242//9
f 238//9 283//9 203//9
f 223//9 301//9 226//9
f 275//9 296//9 204//9
f 274//7 329//7 251//7
f 276//10 298//10 305//10
f 206//10 307//10 357//10
f 249//10 333//10 331//10
f 250//10 337//10 334//10
f 253//6 309//6 205//6
f 227//10 338//10 212//10
f 276//7 285//7 254//7
f 252//6 281//6 227//6
f 215//7 328//7 214//7
f 218//7 304//7 275//7
f 220//6 289//6 217//6
f 231//7 291//7 255//7
f 222//6 298//6 277//6
f 221//7 295//7 257//7
f 204//6 297//6 256//6
f 224//6 360//6 278//6
f 206//7 300//7 225//7
f 259//7 292//7 223//7
f 260//6 343//6 258//6
f 248//7 344//7 261//7
f 263//6 307//6 207//6
f 262//7 346//7 228//7
f 226//6 345//6 264//6
f 229//6 311//6 208//6
f 249//7 347//7 266//7
f 230//7 359//7 238//7
f 232//6 313//6 265//6
f 279//7 314//7 233//7
f 235//6 333//6 280//6
f 234//7 316//7 237//7
f 203//6 317//6 236//6
f 267//6 335//6 209//6
f 336//10 213//10 325//10
f 279//10 335//10 332//10
f 311//10 248//10 208//10
f 360//10 231//10 278//10
f 309//10 274//10 205//10
f 272//6 324//6 325//6
f 242//6 322//6 353//6
f 271//7 323//7 354//7
f 241//6 352//6 337//6
f 210//7 336//7 321//7
f 240//6 320//6 350//6
f 269//7 319//7 358//7
f 250//7 334//7 351//7
f 305//8 298//8 293//8
f 343//8 303//8 295//8
f 357//8 307//8 306//8
f 313//8 312//8 346//8
f 331//8 333//8 349//8
f 350//8 320//8 316//8
f 334//8 337//8 352//8
f 327//8 356//8 354//8
f 338//8 281//8 341//8
f 319//8 353//8 322//8
f 336//8 325//8 324//8
f 348//8 317//8 283//8
f 332//8 335//8 318//8
f 302//8 345//8 301//8
f 330//8 311//8 310//8
f 287//8 297//8 296//8
f 290//8 360//8 299//8
f 284//8 309//8 342//8
f 339//8 289//8 288//8
f 326//8 340//8 282//8
f 212//7 338//7 355//7
f 246//7 326//7 286//7
f 247//6 356//6 327//6
f 244//9 354//9 356//9
f 270//9 321//9 324//9
f 273//10 327//10 323//10
f 239//9 351//9 352//9
f 269//10 243//10 353//10
f 237//9 316//9 320//9
f 233//9 314//9 318//9
f 268//10 350//10 315//10
f 266//9 347//9 349//9
f 230//10 236//10 317//10
f 228//9 346//9 312//9
f 261//9 344//9 310//9
f 262//10 265//10 313//10
f 225//9 300//9 306//9
f 259//10 264//10 345//10
f 257//9 295//9 303//9
f 255//9 291//9 299//9
f 258//10 343//10 294//10
f 254//9 285//9 293//9
f 218//10 256//10 297//10
f 214//9 328//9 288//9
f 251//9 329//9 342//9
f 215//10 217//10 289//10
f 245//9 355//9 341//9
f 216//10 340//10 326//10
f 201//6 282//6 340//6
f 219//9 286//9 282//9
f 202//9 358//9 322//9
f 238//9 359//9 283//9
f 223//9 292//9 301//9
f 275//9 304//9 296//9
f 274//7 284//7 329//7
f 276//10 277//10 298//10
f 206//10 207//10 307//10
f 249//10 280//10 333//10
f 250//10 211//10 337//10
f 253//6 342//6 309//6
f 227//10 281//10 338//10
f 276//7 305//7 285//7
f 252//6 341//6 281//6
f 215//7 339//7 328//7
f 218//7 287//7 304//7
f 220//6 288//6 289//6
f 231//7 290//7 291//7
f 222//6 293//6 298//6
f 221//7 294//7 295//7
f 204//6 296//6 297//6
f 224//6 299//6 360//6
f 206//7 357//7 300//7
f 259//7 302//7 292//7
f 260//6 303//6 343//6
f 248//7 330//7 344//7
f 263//6 306//6 307//6
f 262//7 308//7 346//7
f 226//6 301//6 345//6
f 229//6 310//6 311//6
f 249//7 331//7 347//7
f 230//7 348//7 359//7
f 232//6 312//6 313//6
f 279//7 332//7 314//7
f 235//6 349//6 333//6
f 234//7 315//7 316//7
f 203//6 283//6 317//6
f 267//6 318//6 335//6
f 336//10 210//10 213//10
f 279//10 209//10 335//10
f 311//10 330//10 248//10
f 360//10 290//10 231//10
f 309//10 284//10 274//10
