# Blender v2.79 (sub 0) OBJ File: ''
# www.blender.org
mtllib wall.mtl
o Plane
v -0.500000 -0.000000 -0.510000
v 0.500000 -0.000000 -0.510000
v 0.500000 1.000000 -0.510000
v -0.500000 1.000000 -0.510000
v 0.492500 0.325833 -0.500000
v 0.257500 0.325833 -0.500000
v 0.257500 0.229722 -0.500000
v 0.492500 0.229722 -0.500000
v 0.242500 0.325833 -0.500000
v 0.007500 0.325833 -0.500000
v 0.007500 0.229722 -0.500000
v 0.242500 0.229722 -0.500000
v -0.007500 0.325833 -0.500000
v -0.242500 0.325833 -0.500000
v -0.242500 0.229722 -0.500000
v -0.007500 0.229722 -0.500000
v -0.257500 0.325833 -0.500000
v -0.492500 0.325833 -0.500000
v -0.492500 0.229722 -0.500000
v -0.257500 0.229722 -0.500000
v 0.367500 0.214722 -0.500000
v 0.132500 0.214722 -0.500000
v 0.132500 0.118611 -0.500000
v 0.367500 0.118611 -0.500000
v 0.117500 0.214722 -0.500000
v -0.117500 0.214722 -0.500000
v -0.117500 0.118611 -0.500000
v 0.117500 0.118611 -0.500000
v -0.132500 0.214722 -0.500000
v -0.367500 0.214722 -0.500000
v -0.367500 0.118611 -0.500000
v -0.132500 0.118611 -0.500000
v -0.382500 0.214722 -0.500000
v -0.500000 0.214722 -0.500000
v -0.500000 0.118611 -0.500000
v -0.382500 0.118611 -0.500000
v 0.367500 0.436945 -0.500000
v 0.132500 0.436945 -0.500000
v 0.132500 0.340833 -0.500000
v 0.367500 0.340833 -0.500000
v 0.117500 0.436945 -0.500000
v -0.117500 0.436945 -0.500000
v -0.117500 0.340833 -0.500000
v 0.117500 0.340833 -0.500000
v -0.132500 0.436945 -0.500000
v -0.367500 0.436945 -0.500000
v -0.367500 0.340833 -0.500000
v -0.132500 0.340833 -0.500000
v -0.382500 0.436945 -0.500000
v -0.500000 0.436945 -0.500000
v -0.500000 0.340833 -0.500000
v -0.382500 0.340833 -0.500000
v 0.367500 0.881389 -0.500000
v 0.132500 0.881389 -0.500000
v 0.132500 0.785278 -0.500000
v 0.367500 0.785278 -0.500000
v 0.117500 0.881389 -0.500000
v -0.117500 0.881389 -0.500000
v -0.117500 0.785278 -0.500000
v 0.117500 0.785278 -0.500000
v -0.132500 0.881389 -0.500000
v -0.367500 0.881389 -0.500000
v -0.367500 0.785278 -0.500000
v -0.132500 0.785278 -0.500000
v -0.382500 0.881389 -0.500000
v -0.500000 0.881389 -0.500000
v -0.500000 0.785278 -0.500000
v -0.382500 0.785278 -0.500000
v 0.367500 0.659167 -0.500000
v 0.132500 0.659167 -0.500000
v 0.132500 0.563056 -0.500000
v 0.367500 0.563056 -0.500000
v 0.117500 0.659167 -0.500000
v -0.117500 0.659167 -0.500000
v -0.117500 0.563056 -0.500000
v 0.117500 0.563056 -0.500000
v -0.132500 0.659167 -0.500000
v -0.367500 0.659167 -0.500000
v -0.367500 0.563056 -0.500000
v -0.132500 0.563056 -0.500000
v -0.382500 0.659167 -0.500000
v -0.500000 0.659167 -0.500000
v -0.500000 0.563056 -0.500000
v -0.382500 0.563056 -0.500000
v 0.492500 0.992500 -0.500000
v 0.257500 0.992500 -0.500000
v 0.257500 0.896389 -0.500000
v 0.492500 0.896389 -0.500000
v 0.242500 0.992500 -0.500000
v 0.007500 0.992500 -0.500000
v 0.007500 0.896389 -0.500000
v 0.242500 0.896389 -0.500000
v -0.007500 0.992500 -0.500000
v -0.242500 0.992500 -0.500000
v -0.242500 0.896389 -0.500000
v -0.007500 0.896389 -0.500000
v -0.257500 0.992500 -0.500000
v -0.492500 0.992500 -0.500000
v -0.492500 0.896389 -0.500000
v -0.257500 0.896389 -0.500000
v 0.492500 0.103611 -0.500000
v 0.257500 0.103611 -0.500000
v 0.257500 0.007500 -0.500000
v 0.492500 0.007500 -0.500000
v 0.242500 0.103611 -0.500000
v 0.007500 0.103611 -0.500000
v 0.007500 0.007500 -0.500000
v 0.242500 0.007500 -0.500000
v -0.007500 0.103611 -0.500000
v -0.242500 0.103611 -0.500000
v -0.242500 0.007500 -0.500000
v -0.007500 0.007500 -0.500000
v -0.257500 0.103611 -0.500000
v -0.492500 0.103611 -0.500000
v -0.492500 0.007500 -0.500000
v -0.257500 0.007500 -0.500000
v 0.492500 0.770278 -0.500000
v 0.257500 0.770278 -0.500000
v 0.257500 0.674167 -0.500000
v 0.492500 0.674167 -0.500000
v 0.242500 0.770278 -0.500000
v 0.007500 0.770278 -0.500000
v 0.007500 0.674167 -0.500000
v 0.242500 0.674167 -0.500000
v -0.007500 0.770278 -0.500000
v -0.242500 0.770278 -0.500000
v -0.242500 0.674167 -0.500000
v -0.007500 0.674167 -0.500000
v -0.257500 0.770278 -0.500000
v -0.492500 0.770278 -0.500000
v -0.492500 0.674167 -0.500000
v -0.257500 0.674167 -0.500000
v 0.492500 0.548056 -0.500000
v 0.257500 0.548056 -0.500000
v 0.257500 0.451945 -0.500000
v 0.492500 0.451945 -0.500000
v 0.242500 0.548056 -0.500000
v 0.007500 0.548056 -0.500000
v 0.007500 0.451945 -0.500000
v 0.242500 0.451945 -0.500000
v -0.007500 0.548056 -0.500000
v -0.242500 0.548056 -0.500000
v -0.242500 0.451945 -0.500000
v -0.007500 0.451945 -0.500000
v -0.257500 0.548056 -0.500000
v -0.492500 0.548056 -0.500000
v -0.492500 0.451945 -0.500000
v -0.257500 0.451945 -0.500000
v 0.007500 0.325833 -0.510000
v 0.007500 0.229722 -0.510000
v 0.242500 0.229722 -0.510000
v 0.242500 0.325833 -0.510000
v 0.257500 0.325833 -0.510000
v 0.257500 0.229722 -0.510000
v -0.117500 0.118611 -0.510000
v 0.117500 0.118611 -0.510000
v 0.492500 0.229722 -0.510000
v 0.492500 0.325833 -0.510000
v 0.382500 0.436945 -0.500000
v 0.500000 0.436945 -0.500000
v 0.500000 0.436945 -0.510000
v 0.382500 0.436945 -0.510000
v 0.007500 0.451945 -0.510000
v 0.242500 0.451945 -0.510000
v -0.007500 0.325833 -0.510000
v -0.242500 0.325833 -0.510000
v 0.007500 0.896389 -0.510000
v 0.242500 0.896389 -0.510000
v -0.242500 0.451945 -0.510000
v -0.007500 0.451945 -0.510000
v -0.382500 0.340833 -0.510000
v -0.382500 0.436945 -0.510000
v -0.242500 0.674167 -0.510000
v -0.007500 0.674167 -0.510000
v -0.367500 0.436945 -0.510000
v -0.367500 0.340833 -0.510000
v -0.132500 0.340833 -0.510000
v -0.132500 0.436945 -0.510000
v -0.500000 0.118611 -0.510000
v -0.382500 0.118611 -0.510000
v -0.117500 0.436945 -0.510000
v -0.117500 0.340833 -0.510000
v 0.117500 0.340833 -0.510000
v 0.117500 0.436945 -0.510000
v 0.132500 0.436945 -0.510000
v 0.132500 0.340833 -0.510000
v 0.367500 0.340833 -0.510000
v 0.367500 0.436945 -0.510000
v 0.382500 0.340833 -0.500000
v 0.382500 0.340833 -0.510000
v -0.367500 0.563056 -0.510000
v -0.132500 0.563056 -0.510000
v 0.257500 0.896389 -0.510000
v 0.492500 0.896389 -0.510000
v -0.257500 0.548056 -0.510000
v -0.492500 0.548056 -0.510000
v 0.492500 0.770278 -0.510000
v 0.257500 0.770278 -0.510000
v -0.492500 0.451945 -0.510000
v -0.257500 0.451945 -0.510000
v -0.242500 0.548056 -0.510000
v -0.492500 0.896389 -0.510000
v -0.257500 0.896389 -0.510000
v -0.007500 0.548056 -0.510000
v 0.007500 0.548056 -0.510000
v 0.132500 0.563056 -0.510000
v 0.367500 0.563056 -0.510000
v 0.242500 0.548056 -0.510000
v -0.257500 0.770278 -0.510000
v -0.492500 0.770278 -0.510000
v 0.257500 0.548056 -0.510000
v 0.257500 0.451945 -0.510000
v 0.492500 0.451945 -0.510000
v 0.492500 0.548056 -0.510000
v 0.257500 0.674167 -0.510000
v 0.492500 0.674167 -0.510000
v -0.382500 0.563056 -0.510000
v -0.382500 0.659167 -0.510000
v -0.367500 0.659167 -0.510000
v -0.132500 0.659167 -0.510000
v -0.117500 0.659167 -0.510000
v -0.117500 0.563056 -0.510000
v 0.117500 0.563056 -0.510000
v 0.117500 0.659167 -0.510000
v 0.132500 0.659167 -0.510000
v 0.367500 0.659167 -0.510000
v 0.382500 0.563056 -0.500000
v 0.382500 0.659167 -0.500000
v 0.382500 0.659167 -0.510000
v 0.382500 0.563056 -0.510000
v 0.117500 0.881389 -0.510000
v -0.117500 0.881389 -0.510000
v -0.492500 0.674167 -0.510000
v -0.257500 0.674167 -0.510000
v -0.242500 0.770278 -0.510000
v -0.007500 0.770278 -0.510000
v 0.132500 0.785278 -0.510000
v 0.367500 0.785278 -0.510000
v 0.007500 0.770278 -0.510000
v 0.007500 0.674167 -0.510000
v -0.257500 0.325833 -0.510000
v -0.492500 0.325833 -0.510000
v 0.242500 0.674167 -0.510000
v 0.242500 0.770278 -0.510000
v -0.382500 0.785278 -0.510000
v -0.382500 0.881389 -0.510000
v -0.367500 0.881389 -0.510000
v -0.367500 0.785278 -0.510000
v -0.132500 0.785278 -0.510000
v -0.132500 0.881389 -0.510000
v 0.132500 0.118611 -0.510000
v 0.367500 0.118611 -0.510000
v -0.117500 0.785278 -0.510000
v 0.117500 0.785278 -0.510000
v 0.132500 0.881389 -0.510000
v 0.367500 0.881389 -0.510000
v 0.382500 0.785278 -0.500000
v 0.382500 0.881389 -0.500000
v 0.382500 0.881389 -0.510000
v 0.382500 0.785278 -0.510000
v -0.500000 0.563056 -0.510000
v -0.492500 0.992500 -0.510000
v -0.257500 0.992500 -0.510000
v -0.242500 0.992500 -0.510000
v -0.242500 0.896389 -0.510000
v -0.007500 0.896389 -0.510000
v -0.007500 0.992500 -0.510000
v 0.007500 0.992500 -0.510000
v 0.242500 0.992500 -0.510000
v 0.257500 0.992500 -0.510000
v 0.492500 0.992500 -0.510000
v -0.257500 0.103611 -0.510000
v -0.492500 0.103611 -0.510000
v -0.007500 0.103611 -0.510000
v -0.242500 0.103611 -0.510000
v 0.242500 0.103611 -0.510000
v 0.007500 0.103611 -0.510000
v 0.492500 0.103611 -0.510000
v 0.257500 0.103611 -0.510000
v 0.500000 0.659167 -0.500000
v 0.500000 0.659167 -0.510000
v -0.492500 0.229722 -0.510000
v -0.257500 0.229722 -0.510000
v -0.132500 0.214722 -0.510000
v -0.367500 0.214722 -0.510000
v 0.382500 0.118611 -0.500000
v 0.382500 0.118611 -0.510000
v 0.500000 0.118611 -0.510000
v 0.500000 0.118611 -0.500000
v 0.117500 0.214722 -0.510000
v -0.117500 0.214722 -0.510000
v -0.242500 0.229722 -0.510000
v -0.007500 0.229722 -0.510000
v 0.367500 0.214722 -0.510000
v 0.132500 0.214722 -0.510000
v -0.367500 0.118611 -0.510000
v -0.132500 0.118611 -0.510000
v -0.492500 0.007500 -0.510000
v -0.257500 0.007500 -0.510000
v -0.242500 0.007500 -0.510000
v -0.007500 0.007500 -0.510000
v -0.500000 0.340833 -0.510000
v 0.007500 0.007500 -0.510000
v 0.242500 0.007500 -0.510000
v 0.257500 0.007500 -0.510000
v 0.492500 0.007500 -0.510000
v 0.500000 0.881389 -0.500000
v 0.500000 0.881389 -0.510000
v -0.382500 0.214722 -0.510000
v 0.382500 0.214722 -0.500000
v 0.382500 0.214722 -0.510000
v -0.500000 0.659167 -0.510000
v -0.500000 0.214722 -0.510000
v 0.500000 0.340833 -0.500000
v 0.500000 0.785278 -0.510000
v 0.500000 0.785278 -0.500000
v 0.500000 0.563056 -0.510000
v 0.500000 0.563056 -0.500000
v -0.500000 0.436945 -0.510000
v -0.500000 0.785278 -0.510000
v 0.500000 0.340833 -0.510000
v -0.500000 0.881389 -0.510000
v 0.500000 0.214722 -0.500000
v 0.500000 0.214722 -0.510000
vn 0.0000 0.0000 1.0000
vn -1.0000 0.0000 0.0000
vn 1.0000 0.0000 0.0000
vn 0.0000 -1.0000 0.0000
vn 0.0000 1.0000 0.0000
usemtl Material.001
s off
f 2//1 4//1 1//1
f 2//1 3//1 4//1
usemtl Material.002
f 6//1 8//1 5//1
f 10//1 12//1 9//1
f 14//1 16//1 13//1
f 18//1 20//1 17//1
f 22//1 24//1 21//1
f 26//1 28//1 25//1
f 30//1 32//1 29//1
f 34//1 36//1 33//1
f 38//1 40//1 37//1
f 42//1 44//1 41//1
f 46//1 48//1 45//1
f 50//1 52//1 49//1
f 54//1 56//1 53//1
f 58//1 60//1 57//1
f 62//1 64//1 61//1
f 66//1 68//1 65//1
f 70//1 72//1 69//1
f 74//1 76//1 73//1
f 78//1 80//1 77//1
f 82//1 84//1 81//1
f 86//1 88//1 85//1
f 90//1 92//1 89//1
f 94//1 96//1 93//1
f 98//1 100//1 97//1
f 102//1 104//1 101//1
f 106//1 108//1 105//1
f 110//1 112//1 109//1
f 114//1 116//1 113//1
f 118//1 120//1 117//1
f 122//1 124//1 121//1
f 126//1 128//1 125//1
f 130//1 132//1 129//1
f 134//1 136//1 133//1
f 138//1 140//1 137//1
f 142//1 144//1 141//1
f 146//1 148//1 145//1
f 10//2 150//2 11//2
f 12//3 152//3 9//3
f 6//2 154//2 7//2
f 27//4 156//4 28//4
f 8//3 158//3 5//3
f 160//5 162//5 159//5
f 5//5 153//5 6//5
f 139//4 164//4 140//4
f 13//5 166//5 14//5
f 91//4 168//4 92//4
f 143//4 170//4 144//4
f 52//3 172//3 49//3
f 127//4 174//4 128//4
f 46//2 176//2 47//2
f 48//3 178//3 45//3
f 35//4 180//4 36//4
f 42//2 182//2 43//2
f 44//3 184//3 41//3
f 38//2 186//2 39//2
f 40//3 188//3 37//3
f 159//2 190//2 189//2
f 79//4 192//4 80//4
f 193//4 88//4 87//4
f 145//5 196//5 146//5
f 117//5 198//5 118//5
f 146//2 199//2 147//2
f 148//3 195//3 145//3
f 142//2 169//2 143//2
f 99//4 203//4 100//4
f 144//3 204//3 141//3
f 204//5 142//5 141//5
f 138//2 163//2 139//2
f 71//4 207//4 72//4
f 140//3 208//3 137//3
f 129//5 210//5 130//5
f 134//2 212//2 135//2
f 136//3 214//3 133//3
f 133//5 211//5 134//5
f 215//4 120//4 119//4
f 84//3 218//3 81//3
f 78//2 191//2 79//2
f 80//3 220//3 77//3
f 74//2 222//2 75//2
f 76//3 224//3 73//3
f 70//2 206//2 71//2
f 72//3 226//3 69//3
f 228//2 230//2 227//2
f 57//5 232//5 58//5
f 130//2 233//2 131//2
f 132//3 209//3 129//3
f 126//2 173//2 127//2
f 128//3 236//3 125//3
f 55//4 238//4 56//4
f 122//2 240//2 123//2
f 241//5 18//5 17//5
f 124//3 244//3 121//3
f 118//2 215//2 119//2
f 120//3 197//3 117//3
f 47//4 177//4 48//4
f 212//4 136//4 135//4
f 73//5 221//5 74//5
f 68//3 246//3 65//3
f 62//2 248//2 63//2
f 64//3 250//3 61//3
f 23//4 252//4 24//4
f 58//2 253//2 59//2
f 39//4 187//4 40//4
f 60//3 231//3 57//3
f 54//2 237//2 55//2
f 59//4 254//4 60//4
f 56//3 256//3 53//3
f 258//2 260//2 257//2
f 83//4 217//4 84//4
f 121//5 239//5 122//5
f 98//2 202//2 99//2
f 100//3 263//3 97//3
f 94//2 265//2 95//2
f 96//3 267//3 93//3
f 226//5 70//5 69//5
f 90//2 167//2 91//2
f 92//3 269//3 89//3
f 37//5 185//5 38//5
f 86//2 193//2 87//2
f 88//3 271//3 85//3
f 41//5 181//5 42//5
f 178//5 46//5 45//5
f 53//5 255//5 54//5
f 63//4 249//4 64//4
f 113//5 273//5 114//5
f 125//5 235//5 126//5
f 274//5 110//5 109//5
f 276//5 106//5 105//5
f 250//5 62//5 61//5
f 101//5 279//5 102//5
f 131//4 234//4 132//4
f 280//5 229//5 228//5
f 95//4 266//4 96//4
f 282//4 20//4 19//4
f 137//5 205//5 138//5
f 29//5 285//5 30//5
f 9//5 149//5 10//5
f 123//4 243//4 124//4
f 182//4 44//4 43//4
f 147//4 200//4 148//4
f 287//4 289//4 286//4
f 290//5 26//5 25//5
f 15//4 293//4 16//4
f 154//4 8//4 7//4
f 21//5 295//5 22//5
f 11//4 151//4 12//4
f 222//4 76//4 75//4
f 31//4 297//4 32//4
f 77//5 219//5 78//5
f 115//4 299//4 116//4
f 111//4 301//4 112//4
f 51//4 171//4 52//4
f 107//4 304//4 108//4
f 103//4 306//4 104//4
f 97//5 262//5 98//5
f 93//5 264//5 94//5
f 307//5 259//5 258//5
f 89//5 268//5 90//5
f 85//5 270//5 86//5
f 36//3 309//3 33//3
f 114//2 298//2 115//2
f 116//3 272//3 113//3
f 30//2 296//2 31//2
f 32//3 284//3 29//3
f 110//2 300//2 111//2
f 112//3 274//3 109//3
f 26//2 155//2 27//2
f 28//3 290//3 25//3
f 106//2 303//2 107//2
f 108//3 276//3 105//3
f 22//2 251//2 23//2
f 24//3 294//3 21//3
f 102//2 305//2 103//2
f 104//3 278//3 101//3
f 310//2 287//2 286//2
f 18//2 282//2 19//2
f 20//3 241//3 17//3
f 14//2 292//2 15//2
f 16//3 165//3 13//3
f 82//5 218//5 312//5
f 34//5 309//5 313//5
f 160//1 189//1 314//1
f 316//4 260//4 315//4
f 318//4 230//4 317//4
f 50//5 172//5 319//5
f 307//1 257//1 316//1
f 320//4 68//4 67//4
f 314//4 190//4 321//4
f 66//5 246//5 322//5
f 324//5 310//5 323//5
f 280//1 227//1 318//1
f 323//1 286//1 289//1
f 6//1 7//1 8//1
f 10//1 11//1 12//1
f 14//1 15//1 16//1
f 18//1 19//1 20//1
f 22//1 23//1 24//1
f 26//1 27//1 28//1
f 30//1 31//1 32//1
f 34//1 35//1 36//1
f 38//1 39//1 40//1
f 42//1 43//1 44//1
f 46//1 47//1 48//1
f 50//1 51//1 52//1
f 54//1 55//1 56//1
f 58//1 59//1 60//1
f 62//1 63//1 64//1
f 66//1 67//1 68//1
f 70//1 71//1 72//1
f 74//1 75//1 76//1
f 78//1 79//1 80//1
f 82//1 83//1 84//1
f 86//1 87//1 88//1
f 90//1 91//1 92//1
f 94//1 95//1 96//1
f 98//1 99//1 100//1
f 102//1 103//1 104//1
f 106//1 107//1 108//1
f 110//1 111//1 112//1
f 114//1 115//1 116//1
f 118//1 119//1 120//1
f 122//1 123//1 124//1
f 126//1 127//1 128//1
f 130//1 131//1 132//1
f 134//1 135//1 136//1
f 138//1 139//1 140//1
f 142//1 143//1 144//1
f 146//1 147//1 148//1
f 10//2 149//2 150//2
f 12//3 151//3 152//3
f 6//2 153//2 154//2
f 27//4 155//4 156//4
f 8//3 157//3 158//3
f 160//5 161//5 162//5
f 5//5 158//5 153//5
f 139//4 163//4 164//4
f 13//5 165//5 166//5
f 91//4 167//4 168//4
f 143//4 169//4 170//4
f 52//3 171//3 172//3
f 127//4 173//4 174//4
f 46//2 175//2 176//2
f 48//3 177//3 178//3
f 35//4 179//4 180//4
f 42//2 181//2 182//2
f 44//3 183//3 184//3
f 38//2 185//2 186//2
f 40//3 187//3 188//3
f 159//2 162//2 190//2
f 79//4 191//4 192//4
f 193//4 194//4 88//4
f 145//5 195//5 196//5
f 117//5 197//5 198//5
f 146//2 196//2 199//2
f 148//3 200//3 195//3
f 142//2 201//2 169//2
f 99//4 202//4 203//4
f 144//3 170//3 204//3
f 204//5 201//5 142//5
f 138//2 205//2 163//2
f 71//4 206//4 207//4
f 140//3 164//3 208//3
f 129//5 209//5 210//5
f 134//2 211//2 212//2
f 136//3 213//3 214//3
f 133//5 214//5 211//5
f 215//4 216//4 120//4
f 84//3 217//3 218//3
f 78//2 219//2 191//2
f 80//3 192//3 220//3
f 74//2 221//2 222//2
f 76//3 223//3 224//3
f 70//2 225//2 206//2
f 72//3 207//3 226//3
f 228//2 229//2 230//2
f 57//5 231//5 232//5
f 130//2 210//2 233//2
f 132//3 234//3 209//3
f 126//2 235//2 173//2
f 128//3 174//3 236//3
f 55//4 237//4 238//4
f 122//2 239//2 240//2
f 241//5 242//5 18//5
f 124//3 243//3 244//3
f 118//2 198//2 215//2
f 120//3 216//3 197//3
f 47//4 176//4 177//4
f 212//4 213//4 136//4
f 73//5 224//5 221//5
f 68//3 245//3 246//3
f 62//2 247//2 248//2
f 64//3 249//3 250//3
f 23//4 251//4 252//4
f 58//2 232//2 253//2
f 39//4 186//4 187//4
f 60//3 254//3 231//3
f 54//2 255//2 237//2
f 59//4 253//4 254//4
f 56//3 238//3 256//3
f 258//2 259//2 260//2
f 83//4 261//4 217//4
f 121//5 244//5 239//5
f 98//2 262//2 202//2
f 100//3 203//3 263//3
f 94//2 264//2 265//2
f 96//3 266//3 267//3
f 226//5 225//5 70//5
f 90//2 268//2 167//2
f 92//3 168//3 269//3
f 37//5 188//5 185//5
f 86//2 270//2 193//2
f 88//3 194//3 271//3
f 41//5 184//5 181//5
f 178//5 175//5 46//5
f 53//5 256//5 255//5
f 63//4 248//4 249//4
f 113//5 272//5 273//5
f 125//5 236//5 235//5
f 274//5 275//5 110//5
f 276//5 277//5 106//5
f 250//5 247//5 62//5
f 101//5 278//5 279//5
f 131//4 233//4 234//4
f 280//5 281//5 229//5
f 95//4 265//4 266//4
f 282//4 283//4 20//4
f 137//5 208//5 205//5
f 29//5 284//5 285//5
f 9//5 152//5 149//5
f 123//4 240//4 243//4
f 182//4 183//4 44//4
f 147//4 199//4 200//4
f 287//4 288//4 289//4
f 290//5 291//5 26//5
f 15//4 292//4 293//4
f 154//4 157//4 8//4
f 21//5 294//5 295//5
f 11//4 150//4 151//4
f 222//4 223//4 76//4
f 31//4 296//4 297//4
f 77//5 220//5 219//5
f 115//4 298//4 299//4
f 111//4 300//4 301//4
f 51//4 302//4 171//4
f 107//4 303//4 304//4
f 103//4 305//4 306//4
f 97//5 263//5 262//5
f 93//5 267//5 264//5
f 307//5 308//5 259//5
f 89//5 269//5 268//5
f 85//5 271//5 270//5
f 36//3 180//3 309//3
f 114//2 273//2 298//2
f 116//3 299//3 272//3
f 30//2 285//2 296//2
f 32//3 297//3 284//3
f 110//2 275//2 300//2
f 112//3 301//3 274//3
f 26//2 291//2 155//2
f 28//3 156//3 290//3
f 106//2 277//2 303//2
f 108//3 304//3 276//3
f 22//2 295//2 251//2
f 24//3 252//3 294//3
f 102//2 279//2 305//2
f 104//3 306//3 278//3
f 310//2 311//2 287//2
f 18//2 242//2 282//2
f 20//3 283//3 241//3
f 14//2 166//2 292//2
f 16//3 293//3 165//3
f 82//5 81//5 218//5
f 34//5 33//5 309//5
f 160//1 159//1 189//1
f 316//4 257//4 260//4
f 318//4 227//4 230//4
f 50//5 49//5 172//5
f 307//1 258//1 257//1
f 320//4 245//4 68//4
f 314//4 189//4 190//4
f 66//5 65//5 246//5
f 324//5 311//5 310//5
f 280//1 228//1 227//1
f 323//1 310//1 286//1
